<?xml version="1.0" encoding="UTF-8"?>
<svg version="1.1" xmlns="http://www.w3.org/2000/svg" width="500" height="200">
<path d="M0 0 C1.00023193 0.00523682 2.00046387 0.01047363 3.03100586 0.01586914 C4.1105957 0.0190918 5.19018555 0.02231445 6.30249023 0.02563477 C8.00695313 0.03820312 8.00695313 0.03820312 9.74584961 0.05102539 C11.45611328 0.05779297 11.45611328 0.05779297 13.20092773 0.06469727 C16.02845312 0.07652792 18.85587601 0.09301129 21.68334961 0.11352539 C21.8763414 0.63652222 22.06933319 1.15951904 22.26817322 1.69836426 C34.89188976 35.93717074 34.89188976 35.93717074 47.68334961 70.11352539 C51.10732798 62.08181239 54.26544131 53.9918306 57.22241211 45.77758789 C58.05832221 43.47419253 58.89426053 41.17080741 59.73022461 38.86743164 C61.02589112 35.28659989 62.32033948 31.7053313 63.61401367 28.1237793 C64.87629874 24.63228167 66.14292395 21.14238107 67.40991211 17.65258789 C67.79434479 16.58376373 68.17877747 15.51493958 68.57485962 14.41372681 C68.93888885 13.41183319 69.30291809 12.40993958 69.67797852 11.37768555 C70.15166367 10.06630112 70.15166367 10.06630112 70.63491821 8.72842407 C71.81570736 5.78341117 73.26438069 2.95146323 74.68334961 0.11352539 C82.60334961 0.11352539 90.52334961 0.11352539 98.68334961 0.11352539 C99.80612305 3.15571289 100.92889648 6.19790039 102.08569336 9.33227539 C103.20266453 12.35742463 104.31984553 15.3824963 105.43704224 18.40756226 C106.22378295 20.5381975 107.01030371 22.66891397 107.79660034 24.79971313 C113.25971029 39.62052934 113.25971029 39.62052934 118.81616211 54.40649414 C119.23905518 55.5215332 119.66194824 56.63657227 120.09765625 57.78540039 C120.84244082 59.74150906 121.59137979 61.69604294 122.34521484 63.64868164 C122.66433838 64.48657227 122.98346191 65.32446289 123.31225586 66.18774414 C123.58110596 66.88472412 123.84995605 67.5817041 124.12695312 68.29980469 C124.68334961 70.11352539 124.68334961 70.11352539 124.68334961 73.11352539 C118.08334961 73.11352539 111.48334961 73.11352539 104.68334961 73.11352539 C100.68334961 61.36352539 100.68334961 61.36352539 100.68334961 59.11352539 C91.11334961 59.11352539 81.54334961 59.11352539 71.68334961 59.11352539 C71.02334961 62.08352539 70.36334961 65.05352539 69.68334961 68.11352539 C69.02334961 69.76352539 68.36334961 71.41352539 67.68334961 73.11352539 C54.48334961 73.11352539 41.28334961 73.11352539 27.68334961 73.11352539 C23.68334961 61.11352539 23.68334961 61.11352539 23.68334961 59.11352539 C14.11334961 59.11352539 4.54334961 59.11352539 -5.31665039 59.11352539 C-5.97665039 62.08352539 -6.63665039 65.05352539 -7.31665039 68.11352539 C-7.97665039 69.76352539 -8.63665039 71.41352539 -9.31665039 73.11352539 C-15.91665039 73.11352539 -22.51665039 73.11352539 -29.31665039 73.11352539 C-27.30123941 66.17670762 -25.04123048 59.40313054 -22.51586914 52.63696289 C-22.15701126 51.66804108 -21.79815338 50.69911926 -21.42842102 49.70083618 C-20.28988701 46.62898477 -19.1470708 43.5587471 -18.00415039 40.48852539 C-17.24931583 38.45347196 -16.49475645 36.41831644 -15.74047852 34.38305664 C-13.93690745 29.51904861 -12.12720693 24.65735142 -10.31512451 19.79650879 C-9.36362885 17.23976044 -8.41686637 14.68131054 -7.47143555 12.12231445 C-6.92642311 10.65321215 -6.38134341 9.18413479 -5.83618164 7.71508789 C-5.59179855 7.05020355 -5.34741547 6.38531921 -5.09562683 5.70028687 C-3.02851415 0.14840964 -3.02851415 0.14840964 0 0 Z M8.68334961 19.11352539 C7.34269723 23.04857188 6.0120889 26.98694185 4.68334961 30.92602539 C4.11100586 32.60535156 4.11100586 32.60535156 3.52709961 34.31860352 C3.16616211 35.39174805 2.80522461 36.46489258 2.43334961 37.57055664 C2.09819336 38.56031494 1.76303711 39.55007324 1.41772461 40.56982422 C0.54466206 43.15264157 0.54466206 43.15264157 0.68334961 46.11352539 C6.62334961 46.11352539 12.56334961 46.11352539 18.68334961 46.11352539 C16.07161812 36.97246518 12.88987728 28.0585961 9.68334961 19.11352539 C9.35334961 19.11352539 9.02334961 19.11352539 8.68334961 19.11352539 Z M85.68334961 19.11352539 C84.34269723 23.04857188 83.0120889 26.98694185 81.68334961 30.92602539 C81.11100586 32.60535156 81.11100586 32.60535156 80.52709961 34.31860352 C80.16616211 35.39174805 79.80522461 36.46489258 79.43334961 37.57055664 C79.09819336 38.56031494 78.76303711 39.55007324 78.41772461 40.56982422 C77.54466206 43.15264157 77.54466206 43.15264157 77.68334961 46.11352539 C83.62334961 46.11352539 89.56334961 46.11352539 95.68334961 46.11352539 C93.07161812 36.97246518 89.88987728 28.0585961 86.68334961 19.11352539 C86.35334961 19.11352539 86.02334961 19.11352539 85.68334961 19.11352539 Z " fill="#FFFFFF" transform="translate(44.316650390625,72.886474609375)"/>
<path d="M0 0 C6.27 0 12.54 0 19 0 C19 9.24 19 18.48 19 28 C27.91 28 36.82 28 46 28 C46 18.76 46 9.52 46 0 C52.6 0 59.2 0 66 0 C66 24.09 66 48.18 66 73 C59.4 73 52.8 73 46 73 C46 62.77 46 52.54 46 42 C37.09 42 28.18 42 19 42 C19 52.23 19 62.46 19 73 C12.73 73 6.46 73 0 73 C0 48.91 0 24.82 0 0 Z " fill="#FFFFFF" transform="translate(409,73)"/>
<path d="M0 0 C6.55875 -0.0825 13.1175 -0.165 19.875 -0.25 C22.94917236 -0.30462402 22.94917236 -0.30462402 26.08544922 -0.36035156 C46.31231878 -0.57048919 46.31231878 -0.57048919 53.5 6.4375 C57.30290603 12.93413113 57.62593896 18.57959459 57 26 C55.23248706 31.61445288 51.48043499 34.47833536 47 38 C47.87140625 38.9384375 48.7428125 39.876875 49.640625 40.84375 C53.47721518 45.32503159 56.07809161 50.26720434 58.75 55.5 C59.23082031 56.41136719 59.71164063 57.32273438 60.20703125 58.26171875 C62.80191216 63.27077856 64.4131098 67.4458843 66 73 C59.07 73 52.14 73 45 73 C44.26394531 71.45828125 43.52789062 69.9165625 42.76953125 68.328125 C41.78449774 66.30177036 40.79878499 64.27574581 39.8125 62.25 C39.32974609 61.23421875 38.84699219 60.2184375 38.34960938 59.171875 C35.00234858 51.91790661 35.00234858 51.91790661 29 47 C25.7 46.34 22.4 45.68 19 45 C19 54.24 19 63.48 19 73 C12.73 73 6.46 73 0 73 C0 48.91 0 24.82 0 0 Z M19 13 C19 19.27 19 25.54 19 32 C25.5870115 32 29.09142706 31.935567 35 30 C37.68039246 25.97941131 37.68328032 22.72317518 37 18 C35.01116787 14.94025826 33.74932271 14.20436074 30.25 13.25 C26.51012259 12.96231712 22.75092581 13 19 13 Z " fill="#FFFFFF" transform="translate(179,73)"/>
<path d="M0 0 C6.27 0 12.54 0 19 0 C19.04898437 3.06023437 19.09796875 6.12046875 19.1484375 9.2734375 C19.20257996 12.26550831 19.25983514 15.25750469 19.31738281 18.24951172 C19.35546317 20.31520958 19.39035098 22.38096903 19.421875 24.44677734 C19.46798388 27.43088672 19.5258988 30.41457964 19.5859375 33.3984375 C19.59748871 34.30927094 19.60903992 35.22010437 19.62094116 36.15853882 C19.77673383 43.05960903 20.06597308 50.46829867 23.4375 56.625 C27.67034464 58.89628249 32.31336133 58.76502484 37 58 C40.12798588 56.46354215 40.86459883 55.36429797 42.08544922 52.07958984 C43.42311038 47.05592635 43.35517293 41.98495427 43.4140625 36.81640625 C43.43342865 35.76090073 43.4527948 34.7053952 43.4727478 33.61790466 C43.53224553 30.2661838 43.57880965 26.91442803 43.625 23.5625 C43.6632072 21.28188655 43.70226051 19.00128711 43.7421875 16.72070312 C43.8379226 11.14724997 43.92206347 5.5737293 44 0 C50.6 0 57.2 0 64 0 C64.04623428 6.02843667 64.08596163 12.05624325 64.10986328 18.0847168 C64.11984099 20.12998555 64.13342795 22.17524034 64.15087891 24.22045898 C64.42885141 57.66709136 64.42885141 57.66709136 56.5 66.7109375 C49.39787191 73.45138314 40.94031445 74.49867224 31.5 74.375 C30.61441406 74.38660156 29.72882813 74.39820313 28.81640625 74.41015625 C20.28871868 74.37258934 12.87179352 72.6707406 6.50390625 66.74609375 C1.7301109 61.20353136 -0.13066717 54.88020961 -0.11352539 47.68066406 C-0.11344986 46.61986633 -0.11337433 45.5590686 -0.11329651 44.46612549 C-0.10813522 43.32746033 -0.10297394 42.18879517 -0.09765625 41.015625 C-0.09553383 39.25952911 -0.09553383 39.25952911 -0.09336853 37.46795654 C-0.0877709 33.72861171 -0.0752188 29.98932674 -0.0625 26.25 C-0.0574847 23.71484461 -0.05292184 21.17968829 -0.04882812 18.64453125 C-0.03780223 12.42966443 -0.02053919 6.21484237 0 0 Z " fill="#FFFFFF" transform="translate(256,73)"/>
<path d="M0 0 C1.06476563 0.00580078 2.12953125 0.01160156 3.2265625 0.01757812 C10.76628537 0.14216351 17.13230134 0.98160045 24.3125 3.375 C24.3125 8.325 24.3125 13.275 24.3125 18.375 C15.57562229 16.44774756 15.57562229 16.44774756 13.41308594 15.84985352 C9.9209157 15.06042173 6.37472226 15.23185625 2.8125 15.25 C1.67361328 15.24419922 1.67361328 15.24419922 0.51171875 15.23828125 C-3.12281802 15.24464646 -6.13887515 15.48784379 -9.6875 16.375 C-9.6875 19.345 -9.6875 22.315 -9.6875 25.375 C-8.59953125 25.61734375 -7.5115625 25.8596875 -6.390625 26.109375 C20.71529798 32.23845084 20.71529798 32.23845084 27.3125 40.375 C30.82612227 47.14880294 30.50428226 56.68077822 28.25 63.875 C25.67750664 69.4888056 21.24617704 72.47361892 15.79296875 75.015625 C10.52932956 76.89189975 5.34913744 76.86529692 -0.1875 76.8125 C-1.76241211 76.80766602 -1.76241211 76.80766602 -3.36914062 76.80273438 C-12.39920029 76.64256818 -20.071982 75.02592862 -28.6875 72.375 C-28.6875 67.095 -28.6875 61.815 -28.6875 56.375 C-24.22357167 57.11898805 -21.34585072 57.8253154 -17.3125 59.4375 C-12.18410839 61.19194976 -7.55966963 61.8107103 -2.1875 61.875 C-1.50510254 61.89312744 -0.82270508 61.91125488 -0.11962891 61.92993164 C3.26196679 61.88914393 5.04059292 61.58372355 7.75 59.50390625 C9.48567496 57.45618657 9.48567496 57.45618657 9.8125 54.8125 C9.5415407 52.27366685 9.5415407 52.27366685 7.58886719 50.80981445 C5.15325816 49.27462845 3.18674044 48.63019182 0.390625 47.98046875 C-1.02476562 47.62952148 -1.02476562 47.62952148 -2.46875 47.27148438 C-4.43050166 46.8029871 -6.3940412 46.34190728 -8.359375 45.88867188 C-16.59071342 43.82524533 -22.85976573 40.54385232 -27.6875 33.375 C-29.8700979 26.82720629 -29.989234 18.15173298 -27.0625 11.8125 C-20.70886894 1.379169 -11.17606573 -0.14577477 0 0 Z " fill="#FFFFFF" transform="translate(363.6875,70.625)"/>
</svg>
